<?xml version="1.0" encoding="iso-8859-1"?>
<!-- Generator: Adobe Illustrator 19.0.0, SVG Export Plug-In . SVG Version: 6.00 Build 0)  -->
<svg version="1.1" id="Layer_1" xmlns="http://www.w3.org/2000/svg" xmlns:xlink="http://www.w3.org/1999/xlink" x="0px" y="0px"
	 viewBox="0 0 491.52 491.52" style="enable-background:new 0 0 491.52 491.52;" xml:space="preserve">
<circle style="fill:#45B39C;" cx="245.76" cy="245.76" r="245.76"/>
<path style="opacity:0.1;enable-background:new    ;" d="M487.016,292.551l-162.05-162.05c-1.843-2.201-3.891-4.3-6.042-6.092
	c-10.342-9.063-23.91-14.541-38.707-14.541c-11.059,0-21.35,3.123-30.208,8.397c-8.499-8.244-20.07-13.313-32.819-13.313
	c-21.658,0-39.885,14.644-45.466,34.509c-24.525,0.923-44.134,20.993-44.134,45.723c0,5.477,1.024,10.7,2.816,15.564
	c-15.053,7.476-25.446,22.886-25.446,40.806c0,11.008,3.942,21.146,10.394,28.979c1.843,2.252,3.942,4.352,6.144,6.195l0.205,0.154
	l44.544,44.595c-1.434-0.154-2.714,0.871-2.97,2.355c-0.102,0.922,0.205,1.741,0.819,2.356l28.262,28.262
	c-3.43,6.144-2.765,14.08-1.997,18.432c-5.581,1.485-10.547,6.041-11.162,6.656c-1.126,1.075-1.178,2.867-0.102,3.994
	l104.995,104.995C386.28,472.518,467.54,393.546,487.016,292.551z"/>
<path style="fill:#EBF0F3;" d="M386.56,212.18c0-26.102-21.159-47.262-47.262-47.262c-0.069,0-0.135,0.01-0.204,0.01
	c-2.08-30.738-27.607-55.045-58.873-55.045c-11.051,0-21.355,3.09-30.201,8.37c-8.503-8.216-20.058-13.294-32.815-13.294
	c-21.683,0-39.909,14.619-45.475,34.525c-24.511,0.881-44.125,20.975-44.125,45.701c0,5.48,1.013,10.711,2.778,15.581
	c-15.048,7.433-25.424,22.889-25.424,40.809c0,25.15,20.388,45.539,45.538,45.539c13.785,0,26.111-6.15,34.462-15.826
	c11.19,18.623,31.584,31.088,54.892,31.088c17.266,0,32.923-6.85,44.436-17.965c9.435,10.982,23.395,17.965,39.01,17.965
	c28.413,0,51.446-23.033,51.446-51.446c0-2.374-0.217-4.692-0.528-6.98C381.86,235.553,386.56,224.429,386.56,212.18z"/>
<g>
	<path style="fill:#FFFFFF;" d="M376.322,212.18c0-20.313-16.445-36.855-36.72-37.022l-10.075,0.01l-0.645-9.547
		c-1.73-25.513-23.105-45.498-48.66-45.498c-8.735,0-17.365,2.395-24.95,6.923l-6.73,4.015l-5.635-5.443
		c-6.955-6.717-16.08-10.418-25.7-10.418c-12.612,0-24.094,6.512-30.819,16.668c5.964-4.026,13.047-6.428,20.579-6.428
		c9.62,0,18.745,3.7,25.7,10.418l5.635,5.443l6.73-4.015c7.585-4.528,16.215-6.923,24.95-6.923c25.555,0,46.93,19.985,48.66,45.498
		l0.645,9.547l10.075-0.01c20.275,0.167,36.72,16.71,36.72,37.022c0,9.187-3.435,18.022-9.675,24.878l-3.22,3.532l0.645,4.735
		c0.295,2.178,0.43,3.958,0.43,5.605c0,8.749-2.762,16.855-7.43,23.534c10.665-7.455,17.67-19.804,17.67-33.774
		c0-1.648-0.135-3.428-0.43-5.605l-0.645-4.735l3.22-3.532C372.887,230.202,376.322,221.367,376.322,212.18z"/>
	<path style="fill:#FFFFFF;" d="M124.677,220.188l8.21-4.055l-1.493-4.13c-4.258,2.739-7.806,6.274-10.483,10.382
		C122.119,221.594,123.357,220.839,124.677,220.188z"/>
	<path style="fill:#FFFFFF;" d="M161.857,159.957l7.48-0.267l2.015-7.208c0.27-0.963,0.69-1.848,1.033-2.775l-0.288,0.01
		c-12.036,0.433-22.435,6.716-28.524,16.071C148.837,162.33,155.077,160.201,161.857,159.957z"/>
	<path style="fill:#FFFFFF;" d="M176.217,264.13l-5.342,6.186c2.135-1.518,4.115-3.273,5.897-5.263L176.217,264.13z"/>
</g>
<g>
	<path style="fill:#2F4859;" d="M198.766,293.943c0.416,0,0.84-0.093,1.24-0.29c1.388-0.686,1.959-2.367,1.272-3.755l-7.222-14.639
		c-0.228-0.463-0.579-0.854-1.015-1.13l-15.262-9.651c-1.309-0.827-3.041-0.437-3.869,0.872c-0.828,1.309-0.438,3.042,0.871,3.87
		l14.596,9.227l6.873,13.931C196.737,293.369,197.733,293.943,198.766,293.943z"/>
	<path style="fill:#2F4859;" d="M179.197,328.963c0.4,0,0.798-0.086,1.165-0.253l13.13-5.994c1.409-0.644,2.03-2.307,1.386-3.716
		c-0.643-1.408-2.302-2.026-3.715-1.387l-12.376,5.651l-12.31-1.811c-1.537-0.239-2.957,0.834-3.184,2.366
		c-0.225,1.532,0.834,2.956,2.366,3.182l13.13,1.931C178.925,328.953,179.06,328.963,179.197,328.963z"/>
	<path style="fill:#2F4859;" d="M181.123,384.39c0.692,0,1.386-0.254,1.928-0.768c1.656-1.566,6.804-5.631,10.707-5.631
		c0.88,0,1.709-0.413,2.238-1.115c0.531-0.703,0.699-1.613,0.458-2.46c-0.046-0.158-4.491-16.3,4.551-21.221
		c1.36-0.74,1.864-2.442,1.123-3.803c-0.738-1.36-2.444-1.863-3.803-1.122c-10.054,5.47-9.037,18.568-7.954,24.59
		c-5.588,1.504-10.539,6.083-11.184,6.695c-1.121,1.066-1.165,2.838-0.1,3.96C179.639,384.097,180.38,384.39,181.123,384.39z"/>
	<path style="fill:#2F4859;" d="M292.754,293.943c-0.416,0-0.84-0.093-1.24-0.29c-1.388-0.686-1.959-2.367-1.272-3.755l7.222-14.639
		c0.228-0.463,0.579-0.854,1.015-1.13l15.262-9.651c1.309-0.827,3.041-0.437,3.869,0.872c0.828,1.309,0.438,3.042-0.871,3.87
		l-14.596,9.227l-6.873,13.931C294.782,293.369,293.787,293.943,292.754,293.943z"/>
	<path style="fill:#2F4859;" d="M312.322,328.963c-0.4,0-0.798-0.086-1.165-0.253l-13.13-5.994c-1.409-0.644-2.03-2.307-1.385-3.716
		c0.643-1.408,2.302-2.026,3.715-1.387l12.376,5.651l12.31-1.811c1.537-0.239,2.957,0.834,3.184,2.366
		c0.225,1.532-0.834,2.956-2.366,3.182l-13.13,1.931C312.595,328.953,312.46,328.963,312.322,328.963z"/>
	<path style="fill:#2F4859;" d="M310.397,384.39c-0.692,0-1.386-0.254-1.928-0.768c-1.656-1.566-6.804-5.631-10.707-5.631
		c-0.88,0-1.709-0.413-2.238-1.115c-0.531-0.703-0.699-1.613-0.458-2.46c0.046-0.158,4.491-16.3-4.551-21.221
		c-1.36-0.74-1.864-2.442-1.123-3.803c0.738-1.36,2.444-1.863,3.803-1.122c10.054,5.47,9.037,18.568,7.954,24.59
		c5.588,1.504,10.539,6.083,11.184,6.695c1.121,1.066,1.165,2.838,0.1,3.96C311.881,384.097,311.14,384.39,310.397,384.39z"/>
	<path style="fill:#2F4859;" d="M257.519,243.564c-0.028,0-0.053-0.001-0.079-0.001c-1.548-0.043-2.768-1.328-2.725-2.875
		c0.272-10.386,5.975-30.712,25.611-33.303c1.536-0.2,2.945,0.878,3.147,2.414c0.203,1.535-0.878,2.944-2.414,3.147
		c-19.779,2.608-20.709,26.862-20.741,27.894C260.275,242.359,259.03,243.564,257.519,243.564z"/>
	<path style="fill:#2F4859;" d="M234.621,243.565c-1.513,0-2.758-1.206-2.8-2.726l0,0c-0.031-1.032-0.96-25.286-20.739-27.894
		c-1.536-0.203-2.616-1.612-2.414-3.147c0.203-1.535,1.617-2.615,3.147-2.414c19.636,2.591,25.339,22.917,25.61,33.304
		c0.042,1.548-1.181,2.836-2.729,2.876C234.673,243.565,234.647,243.565,234.621,243.565z"/>
</g>
<path style="fill:#E56353;" d="M202.288,270.423c-7.737,12.24-12.377,27.783-12.377,44.71c0,39.448,25.143,71.427,56.16,71.427
	c31.016,0,56.16-31.978,56.16-71.427c0-16.928-4.64-32.47-12.377-44.71H202.288z"/>
<g>
	<path style="fill:#3A556A;" d="M246.071,234.642c-17.708,0-33.49,13.972-43.784,35.781h87.566
		C279.56,248.614,263.778,234.642,246.071,234.642z"/>
	<path style="fill:#3A556A;" d="M240.114,386.157c1.958,0.262,3.945,0.403,5.958,0.403s3.999-0.141,5.957-0.403l-5.957-88.542
		L240.114,386.157z"/>
	<circle style="fill:#3A556A;" cx="274.381" cy="284.365" r="1.823"/>
	<circle style="fill:#3A556A;" cx="264.899" cy="322.493" r="3.523"/>
	<circle style="fill:#3A556A;" cx="289.946" cy="309.35" r="3.768"/>
	<circle style="fill:#3A556A;" cx="276.06" cy="347.54" r="5.453"/>
	<circle style="fill:#3A556A;" cx="215.552" cy="340.224" r="3.036"/>
	<circle style="fill:#3A556A;" cx="204.262" cy="312.422" r="5.105"/>
	<circle style="fill:#3A556A;" cx="223.462" cy="285.435" r="2.918"/>
	<circle style="fill:#3A556A;" cx="229.965" cy="312.934" r="3.584"/>
	<circle style="fill:#3A556A;" cx="253.184" cy="286.162" r="3.584"/>
	<circle style="fill:#3A556A;" cx="220.621" cy="361.318" r="3.461"/>
</g>
<circle style="fill:#2F4859;" cx="229.545" cy="252.621" r="6.144"/>
<circle style="fill:#64798A;" cx="229.545" cy="252.621" r="3.743"/>
<circle style="fill:#2F4859;" cx="262.605" cy="252.621" r="6.144"/>
<circle style="fill:#64798A;" cx="262.605" cy="252.621" r="3.743"/>
<g>
</g>
<g>
</g>
<g>
</g>
<g>
</g>
<g>
</g>
<g>
</g>
<g>
</g>
<g>
</g>
<g>
</g>
<g>
</g>
<g>
</g>
<g>
</g>
<g>
</g>
<g>
</g>
<g>
</g>
</svg>
