<?xml version="1.0" encoding="iso-8859-1"?>
<!-- Generator: Adobe Illustrator 19.0.0, SVG Export Plug-In . SVG Version: 6.00 Build 0)  -->
<svg version="1.1" id="Layer_1" xmlns="http://www.w3.org/2000/svg" xmlns:xlink="http://www.w3.org/1999/xlink" x="0px" y="0px"
	 viewBox="0 0 491.52 491.52" style="enable-background:new 0 0 491.52 491.52;" xml:space="preserve">
<circle style="fill:#334D5C;" cx="245.76" cy="245.76" r="245.76"/>
<path style="opacity:0.1;enable-background:new    ;" d="M303.411,110.295c-13.414,0-25.958,3.686-36.659,10.189
	c-11.264-9.677-25.907-15.514-41.933-15.514c-32.256,0-58.982,23.706-63.744,54.63c-31.027,0.205-56.115,25.395-56.115,56.422
	c0,14.899,5.837,28.467,15.309,38.605l3.174,3.226l0.358,0.307l38.246,38.246v90.163l104.046,104.046
	c118.871-9.746,213.748-104.03,224.379-222.648L353.536,131.031C340.685,118.231,322.97,110.295,303.411,110.295z"/>
<path style="fill:#EBF0F3;" d="M371.983,199.433c1.541-5.815,2.373-11.92,2.373-18.22c0-39.179-31.76-70.94-70.94-70.94
	c-13.412,0-25.953,3.725-36.65,10.193c-11.278-9.659-25.915-15.506-41.928-15.506c-32.272,0-59.007,23.699-63.755,54.643
	c-31.026,0.179-56.124,25.369-56.124,56.436c0,31.178,25.274,56.453,56.453,56.453h183.637c22.925,0,41.509-18.585,41.509-41.509
	C386.56,218.344,380.893,207.046,371.983,199.433z"/>
<g>
	<path style="fill:#FFFFFF;" d="M150.902,180.083l8.735-0.05l1.325-8.637c0.081-0.526,0.218-1.032,0.313-1.553l-0.133,0.001
		c-15.216,0.089-28.69,7.633-37.055,19.109C131.643,183.451,140.89,180.142,150.902,180.083z"/>
	<path style="fill:#FFFFFF;" d="M365.332,207.218l-4.9-4.185l1.655-6.23c1.344-5.072,2.03-10.32,2.03-15.59
		c0-33.47-27.23-60.7-60.7-60.7c-11.08,0-21.925,3.013-31.35,8.715l-6.335,3.83l-5.625-4.815c-9.825-8.41-22.35-13.043-35.27-13.043
		c-17.306,0-33.087,8.424-43.123,21.521c9.223-7.065,20.668-11.281,32.883-11.281c12.92,0,25.445,4.633,35.27,13.043l5.625,4.815
		l6.335-3.83c9.425-5.703,20.27-8.715,31.35-8.715c33.47,0,60.7,27.23,60.7,60.7c0,5.27-0.685,10.517-2.03,15.59l-1.655,6.23
		l4.9,4.185c6.985,5.967,10.99,14.63,10.99,23.765c0,6.001-1.729,11.592-4.671,16.358c8.929-5.512,14.911-15.357,14.911-26.598
		C376.322,221.848,372.317,213.186,365.332,207.218z"/>
</g>
<polygon style="fill:#FCD462;" points="255.276,207.36 162.054,207.36 162.054,386.56 297.265,386.56 297.265,249.349 "/>
<polygon style="fill:#F6C358;" points="255.276,249.349 297.265,249.349 255.276,207.36 "/>
<g>
	<rect x="174.131" y="257.178" style="fill:#DC8744;" width="111.022" height="6.303"/>
	<rect x="174.131" y="278.835" style="fill:#DC8744;" width="111.022" height="6.303"/>
	<rect x="174.131" y="300.523" style="fill:#DC8744;" width="111.022" height="6.303"/>
	<rect x="174.131" y="322.202" style="fill:#DC8744;" width="111.022" height="6.303"/>
	<rect x="174.131" y="343.91" style="fill:#DC8744;" width="111.022" height="6.303"/>
	<rect x="174.131" y="365.568" style="fill:#DC8744;" width="111.022" height="6.303"/>
</g>
<rect x="263.939" y="264.879" transform="matrix(-0.7071 -0.7071 0.7071 -0.7071 234.0841 729.1201)" style="fill:#44C4A1;" width="8.218" height="102.4"/>
<rect x="269.737" y="270.673" transform="matrix(-0.7071 -0.7071 0.7071 -0.7071 239.8853 743.1108)" style="fill:#3EA69B;" width="8.218" height="102.4"/>
<rect x="275.523" y="276.485" transform="matrix(-0.7071 -0.7071 0.7071 -0.7071 245.6523 757.1234)" style="fill:#31978C;" width="8.218" height="102.4"/>
<path style="fill:#E56353;" d="M328.554,280.188l-13.029-13.029c-1.216-1.216-3.188-1.216-4.404,0l-9.794,9.794l17.433,17.433
	l9.794-9.794C329.769,283.375,329.77,281.404,328.554,280.188z"/>
<path style="fill:#F6C358;" d="M234.85,369.9l11.485-3.09l-17.433-17.433l-3.09,11.485c2.269,0.164,4.496,1.072,6.231,2.807
	C233.778,365.404,234.686,367.631,234.85,369.9z"/>
<path style="fill:#3A556A;" d="M224.87,372.586l9.98-2.686c-0.164-2.269-1.072-4.496-2.807-6.231
	c-1.735-1.735-3.962-2.643-6.231-2.807l-2.686,9.98C222.841,371.901,223.811,372.871,224.87,372.586z"/>
<g>
</g>
<g>
</g>
<g>
</g>
<g>
</g>
<g>
</g>
<g>
</g>
<g>
</g>
<g>
</g>
<g>
</g>
<g>
</g>
<g>
</g>
<g>
</g>
<g>
</g>
<g>
</g>
<g>
</g>
</svg>
